<?xml version="1.0" encoding="UTF-8"?>
<svg id="Layer_1" xmlns="http://www.w3.org/2000/svg" version="1.1" viewBox="0 0 1080 1080">
  <!-- Generator: Adobe Illustrator 30.0.0, SVG Export Plug-In . SVG Version: 2.1.1 Build 123)  -->
  <defs>
    <style>
      .st0 {
        fill: #f78812;
      }

      .st1 {
        fill: none;
        stroke: #f78812;
        stroke-linecap: round;
        stroke-linejoin: round;
        stroke-width: 41px;
      }

      .st2 {
        display: none;
      }
    </style>
  </defs>
  <path class="st1" d="M227.18,723.26c-26.66-17.25-62.21-17.62-89.75,1.81l-79.02-112c-6.87-9.74-4.52-23.33,5.21-30.2l184.42-130.12"/>
  <path class="st1" d="M307.95,410.5L740.97,104.99c9.74-6.87,23.33-4.52,30.2,5.21l79.02,112c-36.16,25.51-44.79,75.5-19.28,111.66,25.51,36.16,75.5,44.79,111.66,19.28l79.02,112c6.87,9.74,4.52,23.33-5.21,30.2"/>
  <path class="st1" d="M398.69,501.24h604.99c11.92,0,21.67,9.75,21.67,21.67v137.07c-44.25,0-80.12,35.87-80.12,80.12s35.87,80.12,80.12,80.12c0,0,0,137.07,0,137.07,0,11.92-9.75,21.67-21.67,21.67h-127.27"/>
  <path class="st1" d="M774.25,978.95H174.72c-11.92,0-21.67-9.75-21.67-21.67,0,0,0-137.07,0-137.07,44.25,0,80.12-35.87,80.12-80.12s-35.87-80.12-80.12-80.12v-137.07c0-11.92,9.75-21.67,21.67-21.67h121.81"/>
  <g class="st2">
    <path class="st0" d="M951.24,932.14c-1.38,0-2.5-1.12-2.5-2.5v-15.59h-15.59c-1.38,0-2.5-1.12-2.5-2.5v-12.34c0-1.38,1.12-2.5,2.5-2.5h15.59v-15.59c0-1.38,1.12-2.5,2.5-2.5h12.34c1.38,0,2.5,1.12,2.5,2.5v15.59h15.69c1.38,0,2.5,1.12,2.5,2.5v12.34c0,1.38-1.12,2.5-2.5,2.5h-15.69v15.59c0,1.38-1.12,2.5-2.5,2.5h-12.34Z"/>
    <path class="st0" d="M963.58,881.13v18.09h18.19v12.34h-18.19v18.09h-12.34v-18.09h-18.09v-12.34h18.09v-18.09h12.34M963.58,876.13h-12.34c-2.76,0-5,2.24-5,5v13.09h-13.09c-2.76,0-5,2.24-5,5v12.34c0,2.76,2.24,5,5,5h13.09v13.09c0,2.76,2.24,5,5,5h12.34c2.76,0,5-2.24,5-5v-13.09h13.19c2.76,0,5-2.24,5-5v-12.34c0-2.76-2.24-5-5-5h-13.19v-13.09c0-2.76-2.24-5-5-5h0Z"/>
  </g>
  <path class="st0" d="M346.33,69.98c1.93,0,1.93-3,0-3s-1.93,3,0,3h0Z"/>
</svg>